<svg width="32" height="32" viewBox="0 0 32 32" fill="none" xmlns="http://www.w3.org/2000/svg">
<path d="M27.9999 9.33333V4H22.6666M27.9999 4L12.9427 19.0572M24.7666 14.776C26.6652 18.4893 27.1613 22.7625 26.1639 26.812C26.1001 27.0734 25.9698 27.3138 25.7857 27.5099C25.6015 27.7061 25.3698 27.8512 25.1129 27.9313C24.8561 28.0115 24.5829 28.0238 24.3199 27.9671C24.0569 27.9105 23.813 27.7868 23.6119 27.608L18.6666 22.6667M9.33326 13.3333L4.38659 8.38667C4.20915 8.18528 4.08668 7.94152 4.031 7.67896C3.97533 7.4164 3.98834 7.14391 4.06878 6.88784C4.14922 6.63178 4.29436 6.4008 4.49018 6.21724C4.686 6.03368 4.92587 5.90374 5.18659 5.84C9.23762 4.84248 13.5125 5.33956 17.2266 7.24M12.9427 19.0572C13.1928 19.3072 13.3333 19.6464 13.3333 20V22.6667C13.3338 22.9656 13.2751 23.2617 13.1607 23.5379C13.0463 23.8141 12.8784 24.065 12.6666 24.276L9.13859 27.8053C9.04535 27.8988 8.92646 27.9625 8.79698 27.9883C8.6675 28.0141 8.53327 28.0009 8.4113 27.9504C8.28934 27.8998 8.18513 27.8142 8.1119 27.7043C8.03866 27.5945 7.99969 27.4654 7.99992 27.3333V25.3333C7.99992 24.9797 7.85945 24.6406 7.6094 24.3905C7.35935 24.1405 7.02021 24 6.66659 24H4.66659C4.53468 24 4.40574 23.9608 4.29609 23.8875C4.18644 23.8141 4.10101 23.7099 4.05062 23.588C4.00023 23.4661 3.98714 23.332 4.013 23.2026C4.03887 23.0733 4.10253 22.9545 4.19592 22.8613L7.72392 19.3333C7.93495 19.1216 8.18579 18.9536 8.46199 18.8392C8.73819 18.7248 9.0343 18.6662 9.33326 18.6667H11.9999C12.3535 18.6667 12.6927 18.8071 12.9427 19.0572Z" stroke="#DEB231" stroke-width="2" stroke-linecap="round" stroke-linejoin="round"/>
</svg>
